<svg id="Layer_1" data-name="Layer 1" xmlns="http://www.w3.org/2000/svg" xmlns:xlink="http://www.w3.org/1999/xlink" viewBox="0 0 723.17 205.03"><defs><style>.cls-1{fill:url(#linear-gradient);}.cls-2{fill:#231f20;}</style><linearGradient id="linear-gradient" x1="213.93" y1="601.86" x2="248.86" y2="403.74" gradientUnits="userSpaceOnUse"><stop offset="0" stop-color="#219262"/><stop offset="0.14" stop-color="#208a5f"/><stop offset="0.36" stop-color="#1d7356"/><stop offset="0.63" stop-color="#174d48"/><stop offset="0.95" stop-color="#101a35"/><stop offset="1" stop-color="#0f1031"/></linearGradient></defs><path class="cls-1" d="M287.24,540.39c-6.71,22.1-24.35,33.45-28.17,35.91a97.55,97.55,0,0,1-26.69,11.54,47.06,47.06,0,0,0-6.27,1.64c-11.67,4.2-16.51,12.6-19.27,11-1.08-.6-.33-1.85-1.81-7.25-.93-3.38-1.53-5.55-3.13-7.74s-2.79-2.32-6.92-5.77c0,0-2.14-1.78-5.44-5.11a88.23,88.23,0,0,1-11.53-15c-15-25.06-11.21-47.28-11.21-47.28.29-1.63,4.31-22.49,22.08-37.24,3.26-2.7,3.31-2.16,8.57-5.93a139.57,139.57,0,0,0,25.81-23.43c-.44,2-.89,4.16-1.32,6.52-1.44,7.9-.76,7.41-1.76,11.42a34.45,34.45,0,0,1-1.78,5.42,22.7,22.7,0,0,1,8-2.28,22.05,22.05,0,0,1,7.68.7,13.39,13.39,0,0,0-3.83-.22,14.65,14.65,0,0,0-4.94,1.43,23.56,23.56,0,0,0-7.36,5.05,36.64,36.64,0,0,0-2.81,3.44,20.26,20.26,0,0,0-1.34,2c-.3.51-.53,1-.78,1.48l0,.05v0c-.32.67-.88,1.92-2.27,5.68,0,.07-.26.71-.58,1.61l-.12.35,0,.09c-.08.21-.15.41-.22.62s-.16.49-.22.69c-.19.59-.28.93-.35,1.23,0,0-.14.55-.24,1.16a.06.06,0,0,0,0,0s0,.06,0,.09a30.94,30.94,0,0,0-.5,5.25v.1a34.71,34.71,0,0,0,1.17,9.38c1.51,5.68,4.11,9.59,9.11,17.14,3,4.52,4.05,5.41,5.61,8.79a38.72,38.72,0,0,1,3.29,12.41,48.3,48.3,0,0,1-3.4,24.16,22.09,22.09,0,0,0-1,2.42c-.39,1.14-.87,2.5-.66,2.63s1.59-1.29,5.07-5.92l.19-.25c1-1.3,2.1-2.83,3.41-4.64l0-.07c1.26-1.79,2.36-3.39,2.91-4.21.17-.24.28-.41.34-.5,7.07-10.51,10.6-15.76,12.63-22.85a50.61,50.61,0,0,0,1.43-20.54c-5.42,5-9.65,6-11.76,6.13a21.83,21.83,0,0,0,4.18-1.95,22.21,22.21,0,0,0,8-8.9c2.68-5,3-9.49,3.19-13.95.48-9.5-1.92-17-3.52-22a105.92,105.92,0,0,0-4-10.21c-1.31-2.93-2.61-5.48-4-8.13-3.51-6.9-3.76-6.73-4.61-9.12a37.37,37.37,0,0,1-2-10.32,46.82,46.82,0,0,1,.11-7.36l0-.26a110.28,110.28,0,0,0,5.41-11.16,79.79,79.79,0,0,0,4.94-14.92,67,67,0,0,0,1.25-7.87A52.08,52.08,0,0,1,252.6,405c.56,1,1.39,2.38,2.35,4.36a61.62,61.62,0,0,1,3.5,9.35c.3,1,.65,2.36,1,3.91,0,.14.07.29.1.45s.07.31.1.47c2.59,12.45.18,15.46,3.2,26.6,3.16,11.64,6.54,11.12,15,28.83,5.53,11.57,10.31,21.79,11.53,35.75A65,65,0,0,1,287.24,540.39Z" transform="translate(-166.36 -395.68)"/><rect class="cls-2" x="243.91" y="34.68" width="13.96" height="137.02"/><rect class="cls-2" x="267.91" y="34.68" width="13.96" height="137.02"/><rect class="cls-2" x="538.91" y="34.68" width="13.96" height="118.81"/><rect class="cls-2" x="599.91" y="34.68" width="13.96" height="119.74"/><rect class="cls-2" x="338.91" y="34.68" width="13.96" height="137.02"/><rect class="cls-2" x="362.91" y="34.68" width="13.96" height="119.49"/><rect class="cls-2" x="453.91" y="34.68" width="13.96" height="119.49"/><path class="cls-2" d="M333.32,430.77c.88,21.46,6.29,43.54,21.12,59.58,8,9,18.33,14.74,27.66,22.49C398.47,526.15,409,546,412.79,566.49l-2,.42c-4.62-19.81-15.27-38.26-31.58-50.51-8.06-6.17-17.51-11.27-25.3-18.18a85,85,0,0,1-7.56-7.62c-14.12-16.34-20.17-38.26-21.88-59.29l8.81-.54Z" transform="translate(-166.36 -395.68)"/><rect class="cls-2" x="789.91" y="430.3" width="13.96" height="137.02" transform="translate(1426.67 603.14) rotate(-179.91)"/><path class="cls-2" d="M880.73,567c-.85-21.46-6.23-43.55-21-59.62-8-9-18.31-14.76-27.63-22.53-16.35-13.33-26.8-33.22-30.61-53.69l2-.42c4.59,19.82,15.21,38.29,31.5,50.56,8.05,6.18,17.5,11.3,25.28,18.22a87.7,87.7,0,0,1,7.55,7.63c14.09,16.37,20.11,38.29,21.79,59.32l-8.81.53Z" transform="translate(-166.36 -395.68)"/><path class="cls-2" d="M442.11,537.6c-2.33-29.26,12.29-57.86,41.24-67.2a67.15,67.15,0,0,1,28.53-2.84l-.65,4.58a63.21,63.21,0,0,0-26.86,1.57c-28.48,8-43.33,35.45-42.26,63.89Z" transform="translate(-166.36 -395.68)"/><path class="cls-2" d="M593.77,437.51a109.55,109.55,0,0,0-22.92-5,142.86,142.86,0,0,0-22.85-.38c-3.73.16-6.86.41-9.13.62l-.21-2.34h56.19Z" transform="translate(-166.36 -395.68)"/><path class="cls-2" d="M571.55,474a64.74,64.74,0,0,0-33.06-2.81v-4.34l35-.13Z" transform="translate(-166.36 -395.68)"/><path class="cls-2" d="M608.32,563.89a88.15,88.15,0,0,1-12.51-2.55c-8.08-2.27-9.76-4-16.34-6.38-12.49-4.54-24.3-4.82-36.24-5.11-3.41-.08-6.21,0-8,0v-3.06l70.74-.16h7Z" transform="translate(-166.36 -395.68)"/><path class="cls-2" d="M692.7,463.43c.29,18.35-14.92,31.76-32.43,33.47-12.17,1.47-24.78-1.41-30.69-13.23-3.21-6.33-4-13.32-4.08-20.24a101.18,101.18,0,0,0-2-19.92,67.15,67.15,0,0,1-1.1-6.76,6.14,6.14,0,0,1,.72-3.79c2.61-3.85,12.75-2.43,17-2.47,4.5.21,9,.47,13.48.58s9.19,0,13.64,1.21c14.29,3.38,25.53,16.13,25.51,31.15Zm-6.13,0c.38-12.39-8-24.91-20-29-4.17-1.57-8.59-1.81-13-2s-9-.34-13.47-.41c-2.25,0-4.49-.07-6.71,0a32.68,32.68,0,0,0-6.5.59,3.72,3.72,0,0,0-2.3,1.35,4.56,4.56,0,0,0-.43,2.74,60.65,60.65,0,0,0,1.11,6.53,111.86,111.86,0,0,1,2,13.43c.61,8.64.41,18,4.83,25.73,5.28,9.64,15.82,12.07,26,10.48,15-1.53,28.57-13.79,28.46-29.38Z" transform="translate(-166.36 -395.68)"/><path class="cls-2" d="M634.18,484.76c10.83-.59,22.61,4.54,28.72,14.19,5.74,9.05,5.94,20,9.8,29.47,9.18,22.82,37.79,34.18,60.72,25.51a69,69,0,0,0,17.52-9.28l.72.7a49.86,49.86,0,0,1-15.41,14.49c-19.56,12.29-46,7.91-62.47-7.92a48.1,48.1,0,0,1-12.42-19.38c-3.65-10.56-2.52-20-6.14-29.44-3.72-8.75-12.28-14.33-21.19-17.35l.15-1Z" transform="translate(-166.36 -395.68)"/><path class="cls-2" d="M719.25,430.39c17.24,8.37,21.13,25.13,23.79,42.52,2.61,16.1,4.33,32.6,7.85,48.39,1.29,5.18,2.78,10.32,5.49,14.72a29.13,29.13,0,0,0,11.35,10.5l-.83,1.82c-8.14-3-14.52-9.86-17.62-17.89-3.25-7.75-4.89-16.06-6.45-24.22-2-10.79-3.5-21.68-5.06-32.52-1.64-10.43-2.75-21.43-8.49-30.42a40,40,0,0,0-11-11.17l1-1.73Z" transform="translate(-166.36 -395.68)"/><path class="cls-2" d="M802.78,567c2.8-12.78,10.11-25.76,22.26-31.9,5-2.56,10.69-3.9,15.6-6a51.8,51.8,0,0,0,9.23-5.19,68.48,68.48,0,0,0,15.38-15.16l.86.52a49.36,49.36,0,0,1-18.6,21.08c-4.71,3.08-10.53,4.9-15.64,6.62a38.75,38.75,0,0,0-17.2,11.67c-4.67,5.38-8,11.91-10.94,18.67l-1-.3Z" transform="translate(-166.36 -395.68)"/></svg>